<svg width="4269" height="871" viewBox="0 0 4269 871" fill="none" xmlns="http://www.w3.org/2000/svg">
<path d="M512.479 0.00656684L644.513 0C645.206 62.1286 645.06 127.295 644.462 189.454C626.066 207.607 607.764 225.861 589.565 244.214C597.815 317.911 604.307 394.115 611.718 468.119L650.728 870.999L397.032 870.977V741.612L325.562 694.163L254.218 741.466L254.212 848.255L254.112 870.948H0C1.95998 854.711 3.31745 836.329 4.9047 819.887L15.558 708.576L48.2957 390.321C80.4541 396.981 112.682 403.305 144.973 409.294C146.071 421.709 147.639 419.896 150.917 431.946C163.394 478.768 194.232 518.581 236.452 542.367C281.661 567.635 335.039 573.959 384.903 559.961C432.054 546.999 477.238 502.587 500.981 459.835C471.227 449.506 434.085 439.345 403.5 430.06C398.109 463.628 367.091 503.744 331.633 501.862C314.302 501.009 298.035 493.211 286.51 480.234C272.439 464.194 268.781 444.988 270.219 424.345C282.963 426.986 295.728 429.524 308.509 431.982C311.805 428.408 323.043 410.19 326.778 406.762C237.841 377.84 146.867 351.777 57.5609 323.728C59.8936 309.344 56.078 301.12 57.5609 285.934L61.3955 244.292C43.2545 225.822 24.5789 207.945 6.37669 189.573L6.43288 0.00585451L138.523 0.0343034L138.548 100.812C177.314 101.791 220.196 100.856 259.355 100.814C259.796 67.4389 259.32 33.5094 259.477 0.0401356L391.466 0.0131337L391.481 100.875L512.384 100.818C512.924 67.5687 512.42 33.3533 512.479 0.00656684Z" fill="white"/>
<path d="M1186.93 699.639C1137.97 699.639 1094.53 688.599 1056.61 666.519C1018.69 643.959 988.928 613.239 967.328 574.359C945.728 534.999 934.928 489.879 934.928 438.999C934.928 388.119 945.728 343.239 967.328 304.359C988.928 264.999 1018.45 234.279 1055.89 212.199C1093.81 189.639 1137.25 178.359 1186.21 178.359C1220.77 178.359 1252.93 184.599 1282.69 197.079C1312.45 209.079 1338.37 226.119 1360.45 248.199C1383.01 269.799 1400.29 294.759 1412.29 323.079L1320.85 356.919C1312.69 339.159 1301.89 323.799 1288.45 310.839C1275.01 297.399 1259.65 287.079 1242.37 279.879C1225.09 272.199 1206.37 268.359 1186.21 268.359C1156.93 268.359 1130.77 275.799 1107.73 290.679C1085.17 305.079 1067.41 324.999 1054.45 350.439C1041.97 375.879 1035.73 405.399 1035.73 438.999C1035.73 472.599 1042.21 502.359 1055.17 528.279C1068.13 553.719 1086.13 573.879 1109.17 588.759C1132.21 603.159 1158.61 610.359 1188.37 610.359C1209.01 610.359 1227.73 606.519 1244.53 598.839C1261.81 590.679 1276.93 579.639 1289.89 565.719C1303.33 551.799 1314.13 535.719 1322.29 517.479L1413.73 550.599C1401.73 579.879 1384.45 605.799 1361.89 628.359C1339.81 650.919 1313.89 668.439 1284.13 680.919C1254.37 693.399 1221.97 699.639 1186.93 699.639Z" fill="white"/>
<path d="M1486.17 690.999V186.279H1584.81V387.879H1818.09V186.999H1916.73V690.999H1818.09V478.599H1584.81V690.999H1486.17Z" fill="white"/>
<path d="M1977.21 690.999L2175.93 186.999H2281.05L2479.77 690.999H2375.37L2332.17 580.119H2124.81L2081.61 690.999H1977.21ZM2157.21 492.999H2299.77L2228.49 310.119L2157.21 492.999Z" fill="white"/>
<path d="M2612.26 690.999V276.999H2461.06V186.999H2861.38V276.999H2710.9V690.999H2612.26Z" fill="white"/>
<path d="M2926.17 690.999V186.999H3245.13V276.999H3024.81V391.479H3214.89V479.319H3024.81V600.999H3248.01V690.999H2926.17Z" fill="white"/>
<path d="M3301.19 690.999L3499.91 186.999H3605.03L3803.75 690.999H3699.35L3656.15 580.119H3448.79L3405.59 690.999H3301.19ZM3481.19 492.999H3623.75L3552.47 310.119L3481.19 492.999Z" fill="white"/>
<path d="M4061.42 701.079C4019.66 701.079 3983.42 692.919 3952.7 676.599C3921.98 660.279 3898.22 637.479 3881.42 608.199C3865.1 578.439 3856.94 543.399 3856.94 503.079V186.999H3955.58V503.079C3955.58 524.679 3959.9 543.639 3968.54 559.959C3977.66 575.799 3990.14 588.039 4005.98 596.679C4022.3 605.319 4041.26 609.639 4062.86 609.639C4084.46 609.639 4103.18 605.319 4119.02 596.679C4135.34 588.039 4147.82 575.799 4156.46 559.959C4165.58 543.639 4170.14 524.679 4170.14 503.079V186.999H4268.78V503.079C4268.78 543.399 4260.14 578.439 4242.86 608.199C4226.06 637.479 4202.06 660.279 4170.86 676.599C4140.14 692.919 4103.66 701.079 4061.42 701.079Z" fill="white"/>
</svg>
